<svg xmlns="http://www.w3.org/2000/svg" viewBox="0 0 860 240"><title>GraphRAG Retrieval Flow</title><defs><style>text{font-family:Inter,system-ui,-apple-system,sans-serif}</style><filter id="sh" width="124%" height="124%" x="-12%" y="-12%"><feDropShadow dx="0" dy="2" flood-color="#00000012" stdDeviation="5"/></filter><linearGradient id="g1" x1="0" x2="0" y1="0" y2="1"><stop offset="0%" stop-color="#818cf8"/><stop offset="100%" stop-color="#4f46e5"/></linearGradient><linearGradient id="g2" x1="0" x2="0" y1="0" y2="1"><stop offset="0%" stop-color="#38bdf8"/><stop offset="100%" stop-color="#0284c7"/></linearGradient><linearGradient id="g3" x1="0" x2="0" y1="0" y2="1"><stop offset="0%" stop-color="#a78bfa"/><stop offset="100%" stop-color="#7c3aed"/></linearGradient><linearGradient id="g4" x1="0" x2="0" y1="0" y2="1"><stop offset="0%" stop-color="#34d399"/><stop offset="100%" stop-color="#059669"/></linearGradient><clipPath id="cc1"><rect width="130" height="100" x="18" y="70" rx="12"/></clipPath><clipPath id="cc2a"><rect width="160" height="56" x="184" y="62" rx="10"/></clipPath><clipPath id="cc2b"><rect width="160" height="56" x="184" y="130" rx="10"/></clipPath><clipPath id="cc3"><rect width="148" height="124" x="384" y="62" rx="12"/></clipPath><clipPath id="cc4"><rect width="130" height="100" x="574" y="70" rx="12"/></clipPath><clipPath id="cc5"><rect width="94" height="100" x="750" y="70" rx="12"/></clipPath><marker id="arr" markerHeight="7" markerWidth="9" orient="auto" refX="8" refY="3.5"><polygon fill="#94a3b8" points="0 0 9 3.5 0 7"/></marker></defs><rect width="860" height="240" fill="#f1f5f9" rx="16"/><text x="430" y="32" fill="#334155" font-size="13" font-weight="700" text-anchor="middle">GraphRAG — Graph-Augmented Retrieval Flow</text><rect width="130" height="100" x="18" y="70" fill="#fff" filter="url(#sh)" rx="12"/><rect width="130" height="38" x="18" y="70" fill="url(#g1)" clip-path="url(#cc1)"/><text x="83" y="88" fill="#fff" font-size="9" font-weight="700" letter-spacing="1" opacity=".8" text-anchor="middle">QUERY</text><text x="83" y="104" fill="#fff" font-size="12" font-weight="700" text-anchor="middle">User Query</text><text x="83" y="135" fill="#475569" font-size="11" text-anchor="middle">&quot;Who founded</text><text x="83" y="151" fill="#475569" font-size="11" text-anchor="middle">Apple Inc.?&quot;</text><line x1="148" x2="176" y1="99" y2="86" stroke="#cbd5e1" stroke-width="1.5" marker-end="url(#arr)"/><line x1="148" x2="176" y1="121" y2="154" stroke="#cbd5e1" stroke-width="1.5" marker-end="url(#arr)"/><rect width="160" height="56" x="184" y="62" fill="#fff" filter="url(#sh)" rx="10"/><rect width="160" height="24" x="184" y="62" fill="url(#g2)" clip-path="url(#cc2a)"/><text x="264" y="77" fill="#fff" font-size="9.5" font-weight="700" text-anchor="middle">Vector Search</text><text x="264" y="100" fill="#334155" font-size="10.5" font-weight="600" text-anchor="middle">Embedding similarity</text><text x="264" y="113" fill="#64748b" font-size="9.5" text-anchor="middle">top-k semantic matches</text><rect width="160" height="56" x="184" y="130" fill="#fff" filter="url(#sh)" rx="10"/><rect width="160" height="24" x="184" y="130" fill="url(#g3)" clip-path="url(#cc2b)"/><text x="264" y="145" fill="#fff" font-size="9.5" font-weight="700" text-anchor="middle">Graph Traversal</text><text x="264" y="168" fill="#334155" font-size="10.5" font-weight="600" text-anchor="middle">Relation paths + context</text><text x="264" y="181" fill="#64748b" font-size="9.5" text-anchor="middle">entity neighborhood</text><line x1="344" x2="376" y1="90" y2="112" stroke="#cbd5e1" stroke-width="1.5" marker-end="url(#arr)"/><line x1="344" x2="376" y1="158" y2="136" stroke="#cbd5e1" stroke-width="1.5" marker-end="url(#arr)"/><rect width="148" height="124" x="384" y="62" fill="#fff" filter="url(#sh)" rx="12"/><rect width="148" height="38" x="384" y="62" fill="url(#g3)" clip-path="url(#cc3)"/><text x="458" y="80" fill="#fff" font-size="9" font-weight="700" letter-spacing="1" opacity=".8" text-anchor="middle">CONTEXT</text><text x="458" y="96" fill="#fff" font-size="12" font-weight="700" text-anchor="middle">Build Context</text><text x="458" y="124" fill="#334155" font-size="10.5" font-weight="600" text-anchor="middle">Merge vectors + graph</text><text x="458" y="140" fill="#64748b" font-size="9.5" text-anchor="middle">rank by relevance</text><text x="458" y="156" fill="#64748b" font-size="9.5" text-anchor="middle">attach source links</text><text x="458" y="172" fill="#64748b" font-size="9.5" text-anchor="middle">provenance metadata</text><line x1="532" x2="566" y1="124" y2="120" stroke="#cbd5e1" stroke-width="1.5" marker-end="url(#arr)"/><rect width="130" height="100" x="574" y="70" fill="#fff" filter="url(#sh)" rx="12"/><rect width="130" height="38" x="574" y="70" fill="url(#g1)" clip-path="url(#cc4)"/><text x="639" y="88" fill="#fff" font-size="9" font-weight="700" letter-spacing="1" opacity=".8" text-anchor="middle">GENERATE</text><text x="639" y="104" fill="#fff" font-size="12" font-weight="700" text-anchor="middle">LLM</text><text x="639" y="131" fill="#334155" font-size="10.5" font-weight="600" text-anchor="middle">Grounded generation</text><text x="639" y="147" fill="#64748b" font-size="9.5" text-anchor="middle">context-aware answer</text><text x="639" y="161" fill="#64748b" font-size="9.5" text-anchor="middle">no hallucination</text><line x1="704" x2="742" y1="120" y2="120" stroke="#cbd5e1" stroke-width="1.5" marker-end="url(#arr)"/><rect width="94" height="100" x="750" y="70" fill="#fff" filter="url(#sh)" rx="12"/><rect width="94" height="38" x="750" y="70" fill="url(#g4)" clip-path="url(#cc5)"/><text x="797" y="88" fill="#fff" font-size="9" font-weight="700" letter-spacing="1" opacity=".8" text-anchor="middle">ANSWER</text><text x="797" y="104" fill="#fff" font-size="12" font-weight="700" text-anchor="middle">Output</text><text x="797" y="132" fill="#334155" font-size="10" font-weight="600" text-anchor="middle">Traceable</text><text x="797" y="147" fill="#334155" font-size="10" font-weight="600" text-anchor="middle">answer</text><text x="797" y="162" fill="#64748b" font-size="9.5" text-anchor="middle">+ source nodes</text><text x="430" y="220" fill="#94a3b8" font-size="10" text-anchor="middle">Every claim links back to a source node — no black-box outputs</text></svg>