<svg xmlns="http://www.w3.org/2000/svg" viewBox="0 0 700 360"><title>Knowledge Graph Structure</title><defs><style>text{font-family:Inter,system-ui,-apple-system,sans-serif}</style><filter id="sh" width="130%" height="130%" x="-15%" y="-15%"><feDropShadow dx="0" dy="3" flood-color="#00000014" stdDeviation="6"/></filter><marker id="arr" markerHeight="7" markerWidth="9" orient="auto" refX="8" refY="3.5"><polygon fill="#94a3b8" points="0 0 9 3.5 0 7"/></marker></defs><rect width="700" height="360" fill="#f1f5f9" rx="16"/><text x="350" y="30" fill="#334155" font-size="13" font-weight="700" text-anchor="middle">Knowledge Graph — Entity &amp; Relation Structure</text><line x1="222" x2="345" y1="158" y2="100" stroke="#94a3b8" stroke-width="1.5" marker-end="url(#arr)"/><rect width="64" height="20" x="240" y="114" fill="#fff" stroke="#e2e8f0" stroke-width="1" rx="4"/><text x="272" y="128" fill="#4f46e5" font-size="10" font-weight="600" text-anchor="middle">founded</text><line x1="224" x2="430" y1="178" y2="238" stroke="#94a3b8" stroke-dasharray="5 3" stroke-width="1.5" marker-end="url(#arr)"/><rect width="90" height="20" x="285" y="195" fill="#fff" stroke="#e2e8f0" stroke-width="1" rx="4"/><text x="330" y="209" fill="#64748b" font-size="10" font-weight="600" text-anchor="middle">connected_to</text><line x1="448" x2="456" y1="118" y2="220" stroke="#94a3b8" stroke-width="1.5" marker-end="url(#arr)"/><rect width="72" height="20" x="420" y="162" fill="#fff" stroke="#e2e8f0" stroke-width="1" rx="4"/><text x="456" y="176" fill="#059669" font-size="10" font-weight="600" text-anchor="middle">located_in</text><line x1="148" x2="178" y1="202" y2="280" stroke="#94a3b8" stroke-width="1.5" marker-end="url(#arr)"/><rect width="52" height="20" x="106" y="234" fill="#fff" stroke="#e2e8f0" stroke-width="1" rx="4"/><text x="132" y="248" fill="#d97706" font-size="10" font-weight="600" text-anchor="middle">born_in</text><line x1="380" x2="248" y1="120" y2="284" stroke="#94a3b8" stroke-width="1.5" marker-end="url(#arr)"/><rect width="76" height="20" x="282" y="195" fill="#fff" stroke="#e2e8f0" stroke-width="1" rx="4"/><rect width="160" height="52" x="50" y="144" fill="#4f46e5" filter="url(#sh)" rx="26"/><rect width="160" height="52" x="50" y="144" fill="none" stroke="#6366f1" stroke-width="1.5" rx="26"/><text x="130" y="167" fill="#fff" font-size="12.5" font-weight="700" text-anchor="middle">Steve Jobs</text><text x="130" y="184" fill="#fff" font-size="10" opacity=".75" text-anchor="middle">PERSON</text><rect width="176" height="52" x="308" y="64" fill="#7c3aed" filter="url(#sh)" rx="26"/><rect width="176" height="52" x="308" y="64" fill="none" stroke="#8b5cf6" stroke-width="1.5" rx="26"/><text x="396" y="87" fill="#fff" font-size="12.5" font-weight="700" text-anchor="middle">Apple Inc.</text><text x="396" y="104" fill="#fff" font-size="10" opacity=".75" text-anchor="middle">ORGANIZATION</text><rect width="160" height="52" x="394" y="220" fill="#059669" filter="url(#sh)" rx="26"/><rect width="160" height="52" x="394" y="220" fill="none" stroke="#10b981" stroke-width="1.5" rx="26"/><text x="474" y="243" fill="#fff" font-size="12.5" font-weight="700" text-anchor="middle">Cupertino</text><text x="474" y="260" fill="#fff" font-size="10" opacity=".75" text-anchor="middle">LOCATION</text><rect width="130" height="52" x="118" y="270" fill="#d97706" filter="url(#sh)" rx="26"/><rect width="130" height="52" x="118" y="270" fill="none" stroke="#f59e0b" stroke-width="1.5" rx="26"/><text x="183" y="293" fill="#fff" font-size="12.5" font-weight="700" text-anchor="middle">1976</text><text x="183" y="310" fill="#fff" font-size="10" opacity=".75" text-anchor="middle">DATE</text><rect width="80" height="18" x="36" y="48" fill="#eef2ff" rx="9"/><circle cx="50" cy="57" r="5" fill="#4f46e5"/><text x="60" y="61" fill="#4f46e5" font-size="10" font-weight="600">PERSON</text><rect width="110" height="18" x="126" y="48" fill="#f5f3ff" rx="9"/><circle cx="140" cy="57" r="5" fill="#7c3aed"/><text x="150" y="61" fill="#7c3aed" font-size="10" font-weight="600">ORGANIZATION</text><rect width="90" height="18" x="246" y="48" fill="#ecfdf5" rx="9"/><circle cx="260" cy="57" r="5" fill="#059669"/><text x="270" y="61" fill="#059669" font-size="10" font-weight="600">LOCATION</text><rect width="60" height="18" x="346" y="48" fill="#fffbeb" rx="9"/><circle cx="360" cy="57" r="5" fill="#d97706"/><text x="370" y="61" fill="#d97706" font-size="10" font-weight="600">DATE</text><rect width="148" height="18" x="416" y="48" fill="#f8fafc" rx="9"/><line x1="430" x2="450" y1="57" y2="57" stroke="#94a3b8" stroke-dasharray="4 2" stroke-width="1.5"/><text x="456" y="61" fill="#64748b" font-size="10" font-weight="600">inferred relation</text></svg>